<svg xmlns="http://www.w3.org/2000/svg" viewBox="0 0 200 260" fill="none">
  <defs>
    <linearGradient id="kBg" x1="0" y1="0" x2="180" y2="260" gradientUnits="userSpaceOnUse">
      <stop stop-color="#3a1570"/><stop offset="1" stop-color="#e72173"/>
    </linearGradient>
  </defs>
  <rect width="200" height="260" fill="url(#kBg)"/>
  <circle cx="78" cy="92" r="38" fill="#fff"/>
  <circle cx="132" cy="78" r="28" fill="#ffd36a"/>
  <circle cx="118" cy="128" r="24" fill="#7ee0ff"/>
  <path d="M78 130c0 40 8 62 8 86" stroke="#fff" stroke-width="3" stroke-linecap="round"/>
  <path d="M132 106c4 28 2 48-6 78" stroke="#ffd36a" stroke-width="3" stroke-linecap="round"/>
  <path d="M118 152c-2 24 4 42 10 62" stroke="#7ee0ff" stroke-width="3" stroke-linecap="round"/>
  <path d="M42 48l6 14 14 2-12 9 4 14-12-8-12 8 4-14-12-9 14-2 6-14z" fill="#fff" fill-opacity=".85"/>
  <path d="M164 156l4 10 10 1-8 7 3 10-9-6-9 6 3-10-8-7 10-1 4-10z" fill="#ffd36a"/>
  <circle cx="48" cy="180" r="6" fill="#7ee0ff"/>
  <circle cx="168" cy="52" r="5" fill="#fff"/>
</svg>
